<svg width="79" height="216" viewBox="0 0 79 216" fill="none" xmlns="http://www.w3.org/2000/svg">
<g filter="url(#filter0_f_2425_252)">
<path d="M4.50116 24C5.22114 -1.06941 74.1339 -3.07151 74.5011 24.0001C76 134.5 50.501 141.432 37.5011 141.5C24.5011 141.568 1.5 128.5 4.50116 24Z" fill="url(#paint0_radial_2425_252)" fill-opacity="0.44"/>
</g>
<g filter="url(#filter1_f_2425_252)">
<path d="M11.5 9.00029C34.6966 7.97101 61.8038 6.40013 66.5 9.00028C74 30.5 47.3329 211.964 40.5 212C33.2915 212.038 1.50001 26 11.5 9.00029Z" fill="url(#paint1_radial_2425_252)" fill-opacity="0.7"/>
</g>
<path d="M49.6426 14.3059C49.6426 14.6287 47.6122 14.8903 45.1076 14.8903C42.603 14.8903 40.5726 14.6287 40.5726 14.3059C40.5726 13.9831 42.603 13.7214 45.1076 13.7214C47.6122 13.7214 49.6426 13.9831 49.6426 14.3059Z" fill="#CEE3E9"/>
<path d="M42.255 12.9178C42.255 13.2406 40.1591 13.5022 37.5737 13.5022C34.9883 13.5022 32.8924 13.2406 32.8924 12.9178C32.8924 12.595 34.9883 12.3333 37.5737 12.3333C40.1591 12.3333 42.255 12.595 42.255 12.9178Z" fill="#CEE3E9"/>
<path d="M32.7461 11.7488C32.7461 12.0716 30.6502 12.3333 28.0648 12.3333C25.4794 12.3333 23.3835 12.0716 23.3835 11.7488C23.3835 11.426 25.4794 11.1644 28.0648 11.1644C30.6502 11.1644 32.7461 11.426 32.7461 11.7488Z" fill="#CEE3E9"/>
<path d="M21.0428 9.59359C21.0428 10.0173 18.947 10.3607 16.3615 10.3607C13.7761 10.3607 11.6803 10.0173 11.6803 9.59359C11.6803 9.16992 13.7761 8.82647 16.3615 8.82647C18.947 8.82647 21.0428 9.16992 21.0428 9.59359Z" fill="#CEE3E9"/>
<path d="M13.2163 12.3333C13.2163 12.6561 11.1532 12.9178 8.60815 12.9178C6.06314 12.9178 4 12.6561 4 12.3333C4 12.0105 6.06314 11.7488 8.60815 11.7488C11.1532 11.7488 13.2163 12.0105 13.2163 12.3333Z" fill="#CEE3E9"/>
<path d="M16.7273 15.1461C16.7273 15.5294 14.6969 15.8401 12.1923 15.8401C9.68765 15.8401 7.65726 15.5294 7.65726 15.1461C7.65726 14.7627 9.68765 14.452 12.1923 14.452C14.6969 14.452 16.7273 14.7627 16.7273 15.1461Z" fill="#CEE3E9"/>
<path d="M13.582 13.7945C13.582 14.1576 11.5189 14.452 8.97388 14.452C6.42887 14.452 4.36573 14.1576 4.36573 13.7945C4.36573 13.4313 6.42887 13.1369 8.97388 13.1369C11.5189 13.1369 13.582 13.4313 13.582 13.7945Z" fill="#CEE3E9"/>
<path d="M26.4556 13.1369C26.4556 13.5001 24.4088 13.7945 21.884 13.7945C19.3592 13.7945 17.3124 13.5001 17.3124 13.1369C17.3124 12.7738 19.3592 12.4794 21.884 12.4794C24.4088 12.4794 26.4556 12.7738 26.4556 13.1369Z" fill="#CEE3E9"/>
<path d="M26.7482 14.8173C26.7482 15.1804 24.685 15.4748 22.14 15.4748C19.595 15.4748 17.5319 15.1804 17.5319 14.8173C17.5319 14.4541 19.595 14.1598 22.14 14.1598C24.685 14.1598 26.7482 14.4541 26.7482 14.8173Z" fill="#CEE3E9"/>
<path d="M22.2132 16.2785C22.2132 16.6416 20.2483 16.936 17.8245 16.936C15.4006 16.936 13.4357 16.6416 13.4357 16.2785C13.4357 15.9153 15.4006 15.6209 17.8245 15.6209C20.2483 15.6209 22.2132 15.9153 22.2132 16.2785Z" fill="#CEE3E9"/>
<path d="M33.5507 16.2785C33.5507 16.5609 31.4875 16.7899 28.9425 16.7899C26.3975 16.7899 24.3344 16.5609 24.3344 16.2785C24.3344 15.996 26.3975 15.7671 28.9425 15.7671C31.4875 15.7671 33.5507 15.996 33.5507 16.2785Z" fill="#CEE3E9"/>
<path d="M15.7032 10.9086C15.7032 11.2516 13.6401 11.5296 11.0951 11.5296C8.55008 11.5296 6.48694 11.2516 6.48694 10.9086C6.48694 10.5657 8.55008 10.2876 11.0951 10.2876C13.6401 10.2876 15.7032 10.5657 15.7032 10.9086Z" fill="#CEE3E9"/>
<path d="M28.9425 8.64382C28.9425 9.06749 26.8139 9.41094 24.1881 9.41094C21.5623 9.41094 19.4336 9.06749 19.4336 8.64382C19.4336 8.22016 21.5623 7.87671 24.1881 7.87671C26.8139 7.87671 28.9425 8.22016 28.9425 8.64382Z" fill="#CEE3E9"/>
<path d="M38.3051 8.02282C38.3051 8.50701 36.0946 8.89953 33.3678 8.89953C30.641 8.89953 28.4305 8.50701 28.4305 8.02282C28.4305 7.53863 30.641 7.14612 33.3678 7.14612C36.0946 7.14612 38.3051 7.53863 38.3051 8.02282Z" fill="#CEE3E9"/>
<path d="M48.1797 7.84018C48.1797 8.30419 46.0183 8.68035 43.3521 8.68035C40.6859 8.68035 38.5246 8.30419 38.5246 7.84018C38.5246 7.37616 40.6859 7 43.3521 7C46.0183 7 48.1797 7.37616 48.1797 7.84018Z" fill="#CEE3E9"/>
<path d="M57.4585 8.53941C57.6079 8.45729 57.6886 8.3696 57.6886 8.27853C57.6886 7.81451 55.5927 7.43835 53.0073 7.43835C50.4219 7.43835 48.326 7.81451 48.326 8.27853C48.326 8.74254 50.4219 9.1187 53.0073 9.1187C54.2773 9.1187 55.4292 9.02794 56.2725 8.88058C56.4658 8.74999 56.8834 8.63279 57.4585 8.53941Z" fill="#CEE3E9"/>
<path d="M43.3521 11.1644C43.3521 11.4871 41.2563 11.7488 38.6708 11.7488C36.0854 11.7488 33.9896 11.4871 33.9896 11.1644C33.9896 10.8416 36.0854 10.5799 38.6708 10.5799C41.2563 10.5799 43.3521 10.8416 43.3521 11.1644Z" fill="#CEE3E9"/>
<path d="M54.1776 11.5296C54.1776 11.8524 52.0818 12.1141 49.4963 12.1141C46.9109 12.1141 44.815 11.8524 44.815 11.5296C44.815 11.2069 46.9109 10.9452 49.4963 10.9452C52.0818 10.9452 54.1776 11.2069 54.1776 11.5296Z" fill="#CEE3E9"/>
<path d="M60.5413 13.0273C60.5413 13.4107 58.5109 13.7214 56.0063 13.7214C53.5017 13.7214 51.4713 13.4107 51.4713 13.0273C51.4713 12.644 53.5017 12.3333 56.0063 12.3333C58.5109 12.3333 60.5413 12.644 60.5413 13.0273Z" fill="#CEE3E9"/>
<path d="M60.8339 9.77623C63.4193 9.77623 65.5152 9.44914 65.5152 9.04565C65.5152 8.64215 63.4193 8.31506 60.8339 8.31506C59.5077 8.31506 58.3103 8.40112 57.4585 8.53941C57.2208 8.67017 56.8091 8.78683 56.2725 8.88058C56.194 8.93363 56.1526 8.98888 56.1526 9.04565C56.1526 9.44914 58.2485 9.77623 60.8339 9.77623Z" fill="#CEE3E9"/>
<path d="M69.288 10.9452C70.4591 10.8058 71.2205 10.5795 71.2205 10.3242C71.2205 9.90051 69.1246 9.55706 66.5392 9.55706C63.9538 9.55706 61.8579 9.90051 61.8579 10.3242C61.8579 10.7428 63.9038 11.083 66.4463 11.0911C67.2318 11.0005 68.2172 10.9462 69.288 10.9452Z" fill="#CEE3E9"/>
<path d="M69.3187 12.3333C71.9041 12.3333 74 12.0226 74 11.6392C74 11.2559 71.9041 10.9452 69.3187 10.9452L69.288 10.9452C68.5161 11.0371 67.5663 11.0913 66.5392 11.0913C66.5082 11.0913 66.4772 11.0912 66.4463 11.0911C65.3455 11.2181 64.6374 11.4164 64.6374 11.6392C64.6374 12.0226 66.7333 12.3333 69.3187 12.3333Z" fill="#CEE3E9"/>
<path d="M73.8537 13.1369C73.8537 13.4597 71.7578 13.7214 69.1724 13.7214C66.587 13.7214 64.4911 13.4597 64.4911 13.1369C64.4911 12.8141 66.587 12.5525 69.1724 12.5525C71.7578 12.5525 73.8537 12.8141 73.8537 13.1369Z" fill="#CEE3E9"/>
<path d="M69.3187 10.9452C71.9041 10.9452 74 11.2559 74 11.6392C74 12.0226 71.9041 12.3333 69.3187 12.3333C66.7333 12.3333 64.6374 12.0226 64.6374 11.6392C64.6374 11.4164 65.3455 11.2181 66.4463 11.0911M69.3187 10.9452C69.3084 10.9452 69.2982 10.9452 69.288 10.9452M69.3187 10.9452L69.288 10.9452M29.6008 15.0365C30.9906 15.4383 34.5967 15.4383 34.8307 15.4383M34.8307 16.9725C39.9143 17.8127 43.813 16.9725 44.047 16.9725M45.2173 16.315C50.3009 17.1552 54.1996 16.315 54.4336 16.315M51.4713 15.073C56.5549 15.9132 60.5632 14.7808 60.7973 14.7808M61.8213 14.7808C66.1369 15.6209 69.9039 15.2191 71.001 14.7808M56.5549 16.1323C60.2853 16.8264 64.0522 16.4976 65.4786 15.8401M57.8715 16.8264C56.5549 17.3378 53.373 17.7762 48.9843 17.1552C48.07 17.7762 43.7179 18.178 39.768 17.557M30.186 17.3743C31.7952 18.2876 36.9519 18.0684 39.4023 17.557M21.116 16.9725C22.7252 17.8858 27.8819 17.6666 30.3323 17.1552M57.4585 8.53941C57.6079 8.45729 57.6886 8.3696 57.6886 8.27853C57.6886 7.81451 55.5927 7.43835 53.0073 7.43835C50.4219 7.43835 48.326 7.81451 48.326 8.27853C48.326 8.74254 50.4219 9.1187 53.0073 9.1187C54.2773 9.1187 55.4292 9.02794 56.2725 8.88058M57.4585 8.53941C56.8834 8.63279 56.4658 8.74999 56.2725 8.88058M57.4585 8.53941C58.3103 8.40112 59.5077 8.31506 60.8339 8.31506C63.4193 8.31506 65.5152 8.64215 65.5152 9.04565C65.5152 9.44914 63.4193 9.77623 60.8339 9.77623C58.2485 9.77623 56.1526 9.44914 56.1526 9.04565C56.1526 8.98888 56.194 8.93363 56.2725 8.88058M57.4585 8.53941C57.2208 8.67017 56.8091 8.78683 56.2725 8.88058M69.288 10.9452C70.4591 10.8058 71.2205 10.5795 71.2205 10.3242C71.2205 9.90051 69.1246 9.55706 66.5392 9.55706C63.9538 9.55706 61.8579 9.90051 61.8579 10.3242C61.8579 10.7428 63.9038 11.083 66.4463 11.0911M69.288 10.9452C68.2172 10.9462 67.2318 11.0005 66.4463 11.0911M69.288 10.9452C68.5161 11.0371 67.5663 11.0913 66.5392 11.0913C66.5082 11.0913 66.4772 11.0912 66.4463 11.0911M21.0428 9.59359C21.0428 10.0173 18.947 10.3607 16.3615 10.3607C13.7761 10.3607 11.6803 10.0173 11.6803 9.59359C11.6803 9.16992 13.7761 8.82647 16.3615 8.82647C18.947 8.82647 21.0428 9.16992 21.0428 9.59359ZM28.9425 8.64382C28.9425 9.06749 26.8139 9.41094 24.1881 9.41094C21.5623 9.41094 19.4336 9.06749 19.4336 8.64382C19.4336 8.22016 21.5623 7.87671 24.1881 7.87671C26.8139 7.87671 28.9425 8.22016 28.9425 8.64382ZM38.3051 8.02282C38.3051 8.50701 36.0946 8.89953 33.3678 8.89953C30.641 8.89953 28.4305 8.50701 28.4305 8.02282C28.4305 7.53863 30.641 7.14612 33.3678 7.14612C36.0946 7.14612 38.3051 7.53863 38.3051 8.02282ZM48.1797 7.84018C48.1797 8.30419 46.0183 8.68035 43.3521 8.68035C40.6859 8.68035 38.5246 8.30419 38.5246 7.84018C38.5246 7.37616 40.6859 7 43.3521 7C46.0183 7 48.1797 7.37616 48.1797 7.84018ZM60.5413 13.0273C60.5413 13.4107 58.5109 13.7214 56.0063 13.7214C53.5017 13.7214 51.4713 13.4107 51.4713 13.0273C51.4713 12.644 53.5017 12.3333 56.0063 12.3333C58.5109 12.3333 60.5413 12.644 60.5413 13.0273ZM73.8537 13.1369C73.8537 13.4597 71.7578 13.7214 69.1724 13.7214C66.587 13.7214 64.4911 13.4597 64.4911 13.1369C64.4911 12.8141 66.587 12.5525 69.1724 12.5525C71.7578 12.5525 73.8537 12.8141 73.8537 13.1369ZM15.7032 10.9086C15.7032 11.2516 13.6401 11.5296 11.0951 11.5296C8.55008 11.5296 6.48694 11.2516 6.48694 10.9086C6.48694 10.5657 8.55008 10.2876 11.0951 10.2876C13.6401 10.2876 15.7032 10.5657 15.7032 10.9086ZM13.2163 12.3333C13.2163 12.6561 11.1532 12.9178 8.60815 12.9178C6.06314 12.9178 4 12.6561 4 12.3333C4 12.0105 6.06314 11.7488 8.60815 11.7488C11.1532 11.7488 13.2163 12.0105 13.2163 12.3333ZM13.582 13.7945C13.582 14.1576 11.5189 14.452 8.97388 14.452C6.42887 14.452 4.36573 14.1576 4.36573 13.7945C4.36573 13.4313 6.42887 13.1369 8.97388 13.1369C11.5189 13.1369 13.582 13.4313 13.582 13.7945ZM16.7273 15.1461C16.7273 15.5294 14.6969 15.8401 12.1923 15.8401C9.68765 15.8401 7.65726 15.5294 7.65726 15.1461C7.65726 14.7627 9.68765 14.452 12.1923 14.452C14.6969 14.452 16.7273 14.7627 16.7273 15.1461ZM22.2132 16.2785C22.2132 16.6416 20.2483 16.936 17.8245 16.936C15.4006 16.936 13.4357 16.6416 13.4357 16.2785C13.4357 15.9153 15.4006 15.6209 17.8245 15.6209C20.2483 15.6209 22.2132 15.9153 22.2132 16.2785ZM26.7482 14.8173C26.7482 15.1804 24.685 15.4748 22.14 15.4748C19.595 15.4748 17.5319 15.1804 17.5319 14.8173C17.5319 14.4541 19.595 14.1598 22.14 14.1598C24.685 14.1598 26.7482 14.4541 26.7482 14.8173ZM26.4556 13.1369C26.4556 13.5001 24.4088 13.7945 21.884 13.7945C19.3592 13.7945 17.3124 13.5001 17.3124 13.1369C17.3124 12.7738 19.3592 12.4794 21.884 12.4794C24.4088 12.4794 26.4556 12.7738 26.4556 13.1369ZM32.7461 11.7488C32.7461 12.0716 30.6502 12.3333 28.0648 12.3333C25.4794 12.3333 23.3835 12.0716 23.3835 11.7488C23.3835 11.426 25.4794 11.1644 28.0648 11.1644C30.6502 11.1644 32.7461 11.426 32.7461 11.7488ZM33.5507 16.2785C33.5507 16.5609 31.4875 16.7899 28.9425 16.7899C26.3975 16.7899 24.3344 16.5609 24.3344 16.2785C24.3344 15.996 26.3975 15.7671 28.9425 15.7671C31.4875 15.7671 33.5507 15.996 33.5507 16.2785ZM43.3521 11.1644C43.3521 11.4871 41.2563 11.7488 38.6708 11.7488C36.0854 11.7488 33.9896 11.4871 33.9896 11.1644C33.9896 10.8416 36.0854 10.5799 38.6708 10.5799C41.2563 10.5799 43.3521 10.8416 43.3521 11.1644ZM42.255 12.9178C42.255 13.2406 40.1591 13.5022 37.5737 13.5022C34.9883 13.5022 32.8924 13.2406 32.8924 12.9178C32.8924 12.595 34.9883 12.3333 37.5737 12.3333C40.1591 12.3333 42.255 12.595 42.255 12.9178ZM54.1776 11.5296C54.1776 11.8524 52.0818 12.1141 49.4963 12.1141C46.9109 12.1141 44.815 11.8524 44.815 11.5296C44.815 11.2069 46.9109 10.9452 49.4963 10.9452C52.0818 10.9452 54.1776 11.2069 54.1776 11.5296ZM49.6426 14.3059C49.6426 14.6287 47.6122 14.8903 45.1076 14.8903C42.603 14.8903 40.5726 14.6287 40.5726 14.3059C40.5726 13.9831 42.603 13.7214 45.1076 13.7214C47.6122 13.7214 49.6426 13.9831 49.6426 14.3059Z" stroke="#CEE3E9" stroke-width="0.2"/>
<defs>
<filter id="filter0_f_2425_252" x="0.233994" y="0.439941" width="78.3304" height="145.06" filterUnits="userSpaceOnUse" color-interpolation-filters="sRGB">
<feFlood flood-opacity="0" result="BackgroundImageFix"/>
<feBlend mode="normal" in="SourceGraphic" in2="BackgroundImageFix" result="shape"/>
<feGaussianBlur stdDeviation="2" result="effect1_foregroundBlur_2425_252"/>
</filter>
<filter id="filter1_f_2425_252" x="5.57152" y="3.58057" width="66.2459" height="212.42" filterUnits="userSpaceOnUse" color-interpolation-filters="sRGB">
<feFlood flood-opacity="0" result="BackgroundImageFix"/>
<feBlend mode="normal" in="SourceGraphic" in2="BackgroundImageFix" result="shape"/>
<feGaussianBlur stdDeviation="2" result="effect1_foregroundBlur_2425_252"/>
</filter>
<radialGradient id="paint0_radial_2425_252" cx="0" cy="0" r="1" gradientUnits="userSpaceOnUse" gradientTransform="translate(41.4974 155.027) rotate(-90.3757) scale(473.944 288.208)">
<stop stop-color="#FAEEE1" stop-opacity="0.03"/>
<stop offset="0.155108" stop-color="#A79FB3" stop-opacity="0.1"/>
<stop offset="0.370449" stop-color="#9E62B4" stop-opacity="0.71"/>
<stop offset="0.388701" stop-color="#DBD0D0" stop-opacity="0.72"/>
<stop offset="1" stop-color="#3B1038"/>
</radialGradient>
<radialGradient id="paint1_radial_2425_252" cx="0" cy="0" r="1" gradientUnits="userSpaceOnUse" gradientTransform="translate(39 216) rotate(-90) scale(569.5 256.838)">
<stop stop-color="#FAEEE1" stop-opacity="0"/>
<stop offset="0.155108" stop-color="#A79FB3" stop-opacity="0"/>
<stop offset="0.329417" stop-color="#83D1F0" stop-opacity="0.71"/>
<stop offset="0.36346" stop-color="#4999E3" stop-opacity="0.964878"/>
<stop offset="0.604068" stop-color="#4191E2"/>
<stop offset="0.604206" stop-color="#DBD0D0" stop-opacity="0.72"/>
</radialGradient>
</defs>
</svg>
