<svg width="958" height="167" viewBox="0 0 958 167" fill="none" xmlns="http://www.w3.org/2000/svg">
<g filter="url(#filter0_d_1704_243)">
<path d="M214.982 125.505C214.438 113.72 201.507 113.934 195.109 115.514C199.268 90.1738 180.346 77.1347 163.685 74.7449M214.982 125.505C220.757 127.311 229.25 134.479 220.078 145.317M214.982 125.505C222.286 124.828 231.288 134.648 220.078 145.317M220.078 145.317C224.211 140.124 235.195 132.041 246.066 141.253C248.953 134.141 257.174 122.457 266.958 132.617M266.958 132.617C274.602 128.722 288.904 130.416 290.398 145.317C294.928 143.793 304.938 142.811 308.743 151.074C315.13 141.727 324.426 147.179 328.276 151.074C328.548 143.082 336.883 142.664 341.016 143.454M266.958 132.617C275.987 118.87 264.005 98.4745 248.104 100.185C247.708 102.868 245.692 109.418 240.8 114.16C242.059 112.277 244.899 106.99 246.436 100.444C246.436 84.1885 238 67.7684 218.379 63.5304C208.867 61.4759 189.333 68.1028 187.635 84.1885M300.76 134.649C302.642 130.823 304.057 129.201 304.666 126.013M368.023 155.646C368.023 133.294 346.395 138.092 343.733 139.559C337.109 129.061 325.785 131.319 323.351 134.649C321.383 126.409 311.101 124.037 304.666 126.013M163.685 74.7449C155.853 73.6216 148.521 74.8512 144.321 78.2623C101.11 37.7589 59.5626 83.681 67.3761 105.186C55.584 102.29 16.5 113 14 145.317M163.685 74.7449C168.849 58.3846 189.39 61.581 199.015 65.2242C201.11 60.7088 207.644 52.3552 217.02 55.0645C223.758 46.7109 242.5 41.5 252.011 65.2243C259.824 56.0667 284.114 59 284.114 99.4281C290.803 99.4281 308.29 107.047 304.666 126.013M351.037 132.617C355.793 123.134 374.478 113.144 387.387 132.617C394.86 128.553 408.449 132.617 408.449 148.025C408.449 136.356 416.27 126.232 425.605 125.073M425.605 125.073C430.763 124.432 436.383 126.53 441.401 132.617C459.01 126.634 492.528 119.985 485.734 141.253C490.573 138.037 498.071 136.338 505.851 136.814M425.605 125.073C437.5 94.5 473 92.5 475.543 113.313C485.133 102.675 506.551 109.08 512.836 122.118M512.836 122.118C532.463 96.2709 578.476 97.3961 587.818 113.313M512.836 122.118C509.634 126.335 507.209 131.229 505.851 136.814M587.818 113.313C573.686 111.687 571.738 126.069 570.323 130.585M587.818 113.313C586.799 106.709 596.651 97.2268 611.428 103.662C595.632 95.3642 614.146 57.943 634.699 78.7703C626.885 57.2658 668.432 11.3436 711.644 51.847M505.268 155.646C504.202 148.67 504.493 142.397 505.851 136.814M711.644 51.847C715.844 48.436 723.176 47.2063 731.008 48.3297M711.644 51.847C699.074 57.7732 693.469 69.7957 695.677 82.8341M787.828 118.382C796.3 107.835 782 95 782 95C782 95 772.5 86 762.431 89.0991C766.591 63.7585 747.669 50.7195 731.008 48.3297M787.828 118.382C787.69 118.554 787.547 118.727 787.4 118.901M787.828 118.382C787.678 118.558 787.536 118.731 787.4 118.901M787.828 118.382C788.275 117.859 788.784 117.315 789.349 116.769M787.4 118.901C788.148 118.19 788.795 117.478 789.349 116.769M789.349 116.769C794.394 111.896 820.415 110.435 827.209 126.352M827.209 126.352C824.343 134.071 823.49 142.613 825.618 151.412M827.209 126.352C834.42 106.934 868.942 97.0183 894 106.584C907.483 111.731 918.226 122.518 920.5 140.5M754.957 57.7732C756.656 41.6876 784.821 39.8021 794.333 41.8566C823.391 48.1328 825.415 76.2175 822.391 89.0991M731.008 48.3297C736.171 31.9694 756.713 35.1657 766.338 38.809C768.433 34.2935 774.967 25.94 784.343 28.6492C789.349 15.1026 824.769 17.1339 822.391 37.1152C833.092 33.7056 854.216 38.5469 864 74.5C874.022 76.024 893.691 83.9486 892.196 103.455M906 151.412C911.5 138 931 137.5 940 151.412" stroke="url(#paint0_radial_1704_243)" stroke-width="3" shape-rendering="crispEdges"/>
</g>
<defs>
<filter id="filter0_d_1704_243" x="0.00439453" y="0" width="957.755" height="166.372" filterUnits="userSpaceOnUse" color-interpolation-filters="sRGB">
<feFlood flood-opacity="0" result="BackgroundImageFix"/>
<feColorMatrix in="SourceAlpha" type="matrix" values="0 0 0 0 0 0 0 0 0 0 0 0 0 0 0 0 0 0 127 0" result="hardAlpha"/>
<feMorphology radius="1" operator="dilate" in="SourceAlpha" result="effect1_dropShadow_1704_243"/>
<feOffset dx="2" dy="-4"/>
<feGaussianBlur stdDeviation="6.75"/>
<feComposite in2="hardAlpha" operator="out"/>
<feColorMatrix type="matrix" values="0 0 0 0 0.943262 0 0 0 0 0.852481 0 0 0 0 0.795048 0 0 0 0.56 0"/>
<feBlend mode="normal" in2="BackgroundImageFix" result="effect1_dropShadow_1704_243"/>
<feBlend mode="normal" in="SourceGraphic" in2="effect1_dropShadow_1704_243" result="shape"/>
</filter>
<radialGradient id="paint0_radial_1704_243" cx="0" cy="0" r="1" gradientUnits="userSpaceOnUse" gradientTransform="translate(449 88.5001) rotate(-7.24044) scale(722.089 110.915)">
<stop stop-color="white"/>
<stop offset="0.170809" stop-color="#E2D4C6"/>
<stop offset="0.41039" stop-color="#C5B9AC"/>
<stop offset="0.777788" stop-color="#FDBA74"/>
<stop offset="0.904049" stop-color="#C18B7C"/>
<stop offset="1" stop-color="#7F776E"/>
</radialGradient>
</defs>
</svg>
