<svg width="1338" height="630" viewBox="0 0 1338 630" fill="none" xmlns="http://www.w3.org/2000/svg">
<g filter="url(#filter0_d_1684_428)">
<path d="M1315.18 652.539C1311.02 639.205 1305.28 596.738 1263.68 601.538C1266.68 582.038 1237.68 554.038 1194.18 573.039C1240.68 548.538 1186.18 438.04 1125.68 499.539C1148.68 436.04 1026.38 300.439 899.184 420.039M899.184 420.039C886.82 409.967 865.238 406.336 842.184 409.653M899.184 420.039C936.184 437.538 952.684 473.039 946.184 511.539M674.923 616.506C649.985 585.362 674.457 564.787 691.184 559.54C692.784 524.74 730.851 525.372 749.684 530.039C737.44 455.212 793.14 416.71 842.184 409.653M674.923 616.506C675.33 617.015 675.75 617.526 676.184 618.04M674.923 616.506C675.365 617.025 675.785 617.537 676.184 618.04M674.923 616.506C673.61 614.963 672.112 613.357 670.447 611.743M676.184 618.04C673.982 615.938 672.079 613.836 670.447 611.743M670.447 611.743C655.597 597.354 579 593.04 559 640.039M579.5 340C605.816 286.799 670.447 311.539 685.184 351.54C712.784 343.54 732.017 368.206 738.184 381.54C766.517 370.782 826.984 361.344 842.184 409.653M579.5 340C562.699 312.593 524.727 295.487 476.248 300.214M579.5 340C591.255 355.5 604.5 390.539 597.396 433C607.557 413.219 625.505 397.098 655.775 390.539C683.775 384.472 766.684 390.04 771.684 437.538M522 295C528.204 264.2 493 202.001 421 211.479M421 211.479C419.211 220.12 415.366 229.104 409 238.208M421 211.479C422.025 206.527 422.375 201.686 422.137 197.001M407 106.833C424.5 53.3329 343.5 -9.9999 286 41.0005C280.843 45.5744 276.712 51.2939 273.744 57.5M407 106.833C451.203 124.237 443.8 187.03 422.137 197.001M407 106.833C398.611 103.53 385 103 378 106.833M236.5 386.208C356 336.862 433.5 395.208 398.5 480.208M166.413 113.89C178.5 48.5 243.744 38 273.744 57.5M422.137 197.001C419.983 154.638 369.753 124.9 336 138.708C293.5 148.001 266.639 194.792 297 229C275.639 229 256.5 244.5 250.5 284M273.744 57.5C267.215 71.1514 266.313 87.1567 272.5 98.5" stroke="url(#paint0_linear_1684_428)" stroke-width="3"/>
</g>
<defs>
<filter id="filter0_d_1684_428" x="-19.2" y="0.524609" width="1357.02" height="672.662" filterUnits="userSpaceOnUse" color-interpolation-filters="sRGB">
<feFlood flood-opacity="0" result="BackgroundImageFix"/>
<feColorMatrix in="SourceAlpha" type="matrix" values="0 0 0 0 0 0 0 0 0 0 0 0 0 0 0 0 0 0 127 0" result="hardAlpha"/>
<feOffset dx="1"/>
<feGaussianBlur stdDeviation="10.1"/>
<feComposite in2="hardAlpha" operator="out"/>
<feColorMatrix type="matrix" values="0 0 0 0 0.882353 0 0 0 0 0.670588 0 0 0 0 0.447059 0 0 0 1 0"/>
<feBlend mode="normal" in2="BackgroundImageFix" result="effect1_dropShadow_1684_428"/>
<feBlend mode="normal" in="SourceGraphic" in2="effect1_dropShadow_1684_428" result="shape"/>
</filter>
<linearGradient id="paint0_linear_1684_428" x1="1186" y1="432.5" x2="190.5" y2="199" gradientUnits="userSpaceOnUse">
<stop stop-color="white"/>
<stop offset="0.340049" stop-color="#6F7385"/>
<stop offset="0.63969" stop-color="#71717A"/>
<stop offset="1" stop-color="#2F80ED"/>
</linearGradient>
</defs>
</svg>
