<svg width="1577" height="1357" viewBox="0 0 1577 1357" fill="none" xmlns="http://www.w3.org/2000/svg">
<g filter="url(#filter0_d_1705_245)">
<path d="M836.913 373.945C789.288 363.961 738.147 349.328 703.989 417.156C683.734 411.402 640.38 409.337 628.993 447.11C601.561 440.946 544.061 496.446 579.726 551.188C569.508 550.342 511.913 579.446 511.913 626.946C490.778 630.596 473.131 657.546 468.054 694.446M836.913 373.945C830.396 407.383 828.748 447.045 836.913 469.946C804.913 468.945 738.613 480.746 729.413 535.946M836.913 373.945C846.759 323.424 902.042 248.775 995.913 231.445C1040.93 223.134 1077.65 224.367 1107.32 231.445M442.561 936.946C446.336 921.853 455.766 914.876 464.561 908.446C450.11 893.418 462.033 877.467 468.054 873.574C374.995 819.759 419.882 699.015 468.054 694.446M442.561 936.946C439.68 948.468 440.7 962.029 451.885 975.04C453.406 986.012 459.892 997.837 471.561 1005.95M442.561 936.946C424.336 938.463 390.13 948.631 382.658 975.621C349.968 954.567 265.413 983.445 255.988 1044.45M258.913 1089.45C255.338 1079.45 253.737 1054.82 255.988 1044.45M537.028 820.266C468.054 834.446 453.822 953.946 522.796 992.883M397.412 1071.95C376.912 1065.45 358.36 1083.84 351.655 1099.95C344.949 1116.05 345.095 1136.17 356.383 1158.9M55.5 1269.58C29.4067 1247.24 9 1154.89 72 1089.45C135 1024 191.913 1027.45 255.988 1044.45M55.5 1269.58C82.7928 1258.8 116.589 1262.73 141 1279M55.5 1269.58C34.158 1278.01 16.7924 1295.44 11 1323M481.192 759.343C472.981 754.116 463.128 725.923 468.054 694.446M676.413 790.446C628.993 672.446 738.339 551.708 854.913 551.188C884.601 551.055 900.28 553.107 928.413 562.945M1216.91 334.945C1210.75 301.865 1180.46 248.895 1107.32 231.445M1107.32 231.445C1085.91 176.945 1086.41 63.9117 1210.41 18.9449C1301.41 -14.0548 1405.91 31.946 1436.91 98.4449M854.913 891.445C854.913 786.945 1080.91 728.586 1180.91 908.446M1027.41 646.946C1010.06 605.201 968.283 576.888 928.413 562.945M928.413 562.945C925.413 543.445 955.413 511.944 998.913 530.945C952.413 506.444 986.747 409.445 1060.25 439.445M1060.25 439.445C1055.63 455.04 1055.48 469.908 1060.91 481.945M1060.25 439.445C1081.13 368.891 1193.43 283.462 1293.91 377.945M1293.91 377.945C1306.28 367.873 1327.86 364.242 1350.91 367.559M1293.91 377.945C1256.91 395.444 1240.41 430.945 1246.91 469.445M1152.91 790.445C1115.41 680.445 1224.41 662.406 1247.41 689.446C1240.41 630.445 1330.58 634.779 1350.41 659.446C1378.01 651.446 1397.25 676.113 1403.41 689.446C1431.75 678.688 1492.21 669.25 1507.41 717.559M1423.91 749.445C1418.91 701.947 1345.41 695.379 1317.41 701.445C1231.88 719.978 1247.41 778.945 1263.82 793.445M1377.41 231.445C1350.41 192.445 1397.51 53.6447 1545.91 98.4449" stroke="url(#paint0_linear_1705_245)"/>
</g>
<defs>
<filter id="filter0_d_1705_245" x="0.310741" y="0.299999" width="1575.95" height="1356" filterUnits="userSpaceOnUse" color-interpolation-filters="sRGB">
<feFlood flood-opacity="0" result="BackgroundImageFix"/>
<feColorMatrix in="SourceAlpha" type="matrix" values="0 0 0 0 0 0 0 0 0 0 0 0 0 0 0 0 0 0 127 0" result="hardAlpha"/>
<feOffset dx="10" dy="13"/>
<feGaussianBlur stdDeviation="10.1"/>
<feComposite in2="hardAlpha" operator="out"/>
<feColorMatrix type="matrix" values="0 0 0 0 0.992157 0 0 0 0 0.729412 0 0 0 0 0.454902 0 0 0 0.31 0"/>
<feBlend mode="normal" in2="BackgroundImageFix" result="effect1_dropShadow_1705_245"/>
<feBlend mode="normal" in="SourceGraphic" in2="effect1_dropShadow_1705_245" result="shape"/>
</filter>
<linearGradient id="paint0_linear_1705_245" x1="98.9141" y1="957.946" x2="1454" y2="525" gradientUnits="userSpaceOnUse">
<stop stop-color="white"/>
<stop offset="0.162972" stop-color="#EEAA86"/>
<stop offset="0.305182" stop-color="#EC8977"/>
<stop offset="0.459461" stop-color="#584BBC"/>
<stop offset="0.669367" stop-color="#284493"/>
<stop offset="1"/>
</linearGradient>
</defs>
</svg>
